<?xml version="1.0" standalone="no"?>
<!DOCTYPE svg PUBLIC "-//W3C//DTD SVG 20010904//EN"
 "http://www.w3.org/TR/2001/REC-SVG-20010904/DTD/svg10.dtd">
<svg version="1.0" xmlns="http://www.w3.org/2000/svg"
 width="800.000000pt" height="600.000000pt" viewBox="0 0 800.000000 600.000000"
 preserveAspectRatio="xMidYMid meet">

<g transform="translate(0.000000,600.000000) scale(0.100000,-0.100000)"
fill="#000000" stroke="none">
<path d="M0 3000 l0 -3000 4000 0 4000 0 0 3000 0 3000 -4000 0 -4000 0 0
-3000z m3870 2392 c42 -7 45 -9 48 -40 3 -30 -3 -40 -52 -85 -66 -62 -95 -117
-103 -191 -24 -232 249 -361 415 -195 54 53 67 85 66 169 0 97 -28 160 -93
204 -69 47 -81 63 -81 100 0 42 11 46 148 46 70 0 112 -5 131 -14 35 -19 75
-71 109 -144 25 -53 27 -66 27 -192 0 -134 0 -136 -34 -205 -48 -97 -123 -169
-239 -229 l-93 -48 3 -263 c2 -145 7 -267 11 -272 5 -4 145 -8 311 -8 l303 0
34 26 c46 36 286 275 298 297 6 12 -3 45 -30 113 -47 115 -65 246 -51 361 15
117 107 298 151 298 20 0 164 -90 176 -110 4 -7 -8 -43 -29 -84 -64 -125 -69
-258 -12 -381 35 -78 113 -156 189 -191 57 -26 72 -29 173 -29 111 0 112 0
193 41 l81 42 30 -35 c17 -19 47 -59 67 -89 36 -54 36 -54 17 -75 -55 -61
-203 -116 -337 -125 -122 -9 -218 7 -330 56 -68 29 -95 36 -109 29 -10 -5 -86
-73 -169 -151 -83 -79 -165 -152 -181 -164 -57 -42 -118 -45 -958 -42 -730 3
-798 4 -833 20 -50 23 -75 44 -228 193 -174 170 -163 164 -245 125 -109 -51
-175 -65 -314 -65 -101 0 -138 4 -195 22 -102 32 -285 146 -285 177 0 16 127
186 138 186 5 0 26 -15 48 -33 152 -130 327 -158 494 -79 66 31 158 120 188
183 70 145 46 324 -58 441 -27 31 -50 61 -50 66 0 19 184 132 215 132 20 0
108 -134 135 -208 68 -181 62 -358 -19 -548 -23 -54 -27 -73 -19 -89 17 -31
259 -275 293 -293 26 -14 70 -17 328 -17 284 0 299 1 313 19 11 16 14 69 14
262 0 133 -3 249 -6 258 -3 9 -42 35 -86 58 -248 132 -341 402 -223 645 19 39
51 85 70 102 34 29 40 31 118 30 45 0 102 -4 127 -7z m192 -152 c83 -23 138
-101 138 -195 0 -62 -14 -97 -57 -136 -42 -40 -87 -59 -137 -59 -58 0 -93 14
-135 53 -102 97 -76 263 52 322 57 27 84 30 139 15z m-619 -1748 c28 -28 32
-39 32 -86 0 -44 -5 -59 -24 -80 -24 -26 -27 -26 -165 -26 -293 -1 -378 -19
-444 -95 -54 -61 -67 -93 -66 -170 0 -103 49 -186 132 -227 44 -21 63 -23 275
-28 l229 -5 29 -33 c41 -46 41 -108 0 -154 l-29 -33 -259 0 -260 0 -86 43
c-157 78 -249 197 -277 358 -37 211 73 420 272 519 95 46 157 54 411 51 l198
-2 32 -32z m1683 6 c117 -41 204 -111 274 -219 82 -126 94 -301 30 -435 -47
-99 -149 -199 -255 -249 l-79 -39 -360 -6 -359 -6 -34 -39 c-37 -43 -150 -205
-159 -228 -4 -12 42 -15 313 -20 356 -6 367 -7 460 -78 29 -22 104 -88 166
-148 62 -59 123 -113 135 -120 19 -10 35 -7 100 18 42 17 104 38 137 46 79 20
246 20 316 -1 66 -19 192 -84 238 -123 32 -26 33 -30 23 -60 -14 -39 -81 -141
-97 -148 -7 -2 -41 14 -76 37 -81 52 -151 72 -252 72 -225 0 -393 -151 -405
-363 -7 -119 19 -203 97 -319 17 -25 31 -50 31 -55 0 -14 -166 -125 -186 -125
-35 0 -124 141 -160 255 -50 158 -43 314 22 476 39 98 41 115 16 145 -32 40
-234 225 -265 245 -30 18 -53 19 -344 19 -299 0 -313 -1 -323 -19 -6 -12 -10
-115 -10 -264 0 -280 -8 -256 103 -305 284 -129 364 -511 157 -754 -58 -67
-108 -88 -208 -88 l-82 0 0 40 0 40 -84 0 -84 0 -9 -37 -9 -38 -67 -3 c-99 -4
-141 11 -199 71 -101 105 -151 261 -131 403 23 158 121 291 280 378 45 24 73
46 77 60 10 38 7 476 -4 497 -10 18 -24 19 -309 19 -164 0 -312 -3 -328 -6
-56 -11 -313 -249 -313 -290 0 -13 14 -55 31 -92 16 -37 37 -94 44 -127 19
-79 19 -255 0 -330 -22 -88 -92 -220 -149 -282 -43 -48 -53 -54 -78 -49 -36 7
-156 77 -182 104 -18 20 -17 22 43 80 215 211 172 554 -84 674 -178 83 -366
53 -520 -81 -31 -27 -62 -48 -69 -45 -24 9 -118 161 -114 185 4 29 111 113
202 158 92 46 164 61 300 61 114 0 125 -2 239 -41 101 -35 123 -39 144 -30 14
6 81 64 149 128 127 120 193 170 254 193 26 10 129 15 385 19 285 5 354 9 372
21 13 8 73 91 135 185 98 147 113 175 112 210 0 35 -20 69 -148 257 -81 120
-154 234 -162 253 -9 23 -14 72 -14 151 l0 117 42 40 41 39 586 -4 586 -5 71
-25z m784 22 c137 -22 295 -133 353 -247 82 -162 77 -378 -12 -507 -108 -156
-327 -249 -483 -206 -70 20 -100 99 -63 169 17 35 50 48 135 56 92 9 147 39
194 107 32 47 39 66 43 121 5 55 2 73 -19 119 -44 96 -133 158 -227 158 -48 0
-100 20 -121 47 -27 35 -27 105 1 145 35 49 77 57 199 38z m-3970 -69 c27 -7
38 -44 20 -71 -12 -19 -210 -27 -253 -11 -24 9 -28 16 -25 43 3 30 7 34 43 39
55 8 185 8 215 0z m295 -321 c20 -17 19 -43 -4 -64 -17 -16 -43 -17 -260 -14
-257 3 -265 5 -259 53 6 41 39 46 280 42 165 -3 231 -7 243 -17z m-2 -309 c24
-19 21 -47 -5 -65 -19 -13 -62 -16 -266 -16 -149 0 -251 4 -263 10 -28 15 -26
68 4 80 12 5 131 9 268 7 191 -1 250 -5 262 -16z"/>
<path d="M4193 3291 c-67 -3 -124 -9 -128 -13 -13 -12 7 -50 89 -172 45 -66
104 -156 130 -198 26 -43 61 -89 78 -103 l30 -25 311 0 c280 0 316 2 352 19
57 25 101 66 133 119 23 40 27 58 27 122 0 85 -17 123 -84 183 -67 61 -97 65
-476 70 -187 2 -395 1 -462 -2z"/>
<path d="M3955 1251 c-69 -17 -138 -68 -165 -120 -60 -119 -15 -274 96 -322
99 -44 201 -34 274 28 58 50 80 98 80 178 0 73 -15 111 -64 163 -56 61 -149
91 -221 73z m158 -81 c89 -61 116 -177 58 -257 -46 -63 -86 -83 -168 -83 -62
0 -75 3 -111 30 -113 82 -107 243 11 315 36 22 51 25 108 23 50 -3 75 -9 102
-28z"/>
</g>
</svg>
